<?xml version="1.0" encoding="UTF-8" standalone="no"?>
<!DOCTYPE svg PUBLIC "-//W3C//DTD SVG 1.1//EN" "http://www.w3.org/Graphics/SVG/1.1/DTD/svg11.dtd">
<svg width="100%" height="100%" viewBox="0 0 4624 2257" version="1.1" xmlns="http://www.w3.org/2000/svg" xmlns:xlink="http://www.w3.org/1999/xlink" xml:space="preserve" xmlns:serif="http://www.serif.com/" style="fill-rule:evenodd;clip-rule:evenodd;">
    <g id="g42">
        <path id="path2" d="M1753.42,1988.87L2178.62,1988.87" style="fill:none;fill-rule:nonzero;stroke:black;stroke-width:0.99px;"/>
        <path id="path4" d="M2178.62,1988.87L2243.65,1986.85L2301.73,1981.72L2371.66,1970.99L2438.22,1955.07L2497.65,1934.39L2543.88,1912.11L2591.12,1880.19L2626.05,1845.59L2652.21,1805.53L2670.03,1753.74L2674.68,1706.12" style="fill:none;fill-rule:nonzero;stroke:black;stroke-width:0.99px;"/>
        <path id="path6" d="M2674.68,1706.12L2674.68,1421.94" style="fill:none;fill-rule:nonzero;stroke:black;stroke-width:0.99px;"/>
        <path id="path8" d="M2674.68,1421.94C2674.68,1367.56 2643.38,1317.78 2594.37,1294.21" style="fill:none;fill-rule:nonzero;stroke:black;stroke-width:0.99px;"/>
        <path id="path10" d="M2433.74,1038.74C2433.74,1147.51 2496.34,1247.08 2594.37,1294.21" style="fill:none;fill-rule:nonzero;stroke:black;stroke-width:0.99px;"/>
        <path id="path12" d="M2433.74,813.019L2433.74,1038.74" style="fill:none;fill-rule:nonzero;stroke:black;stroke-width:0.99px;"/>
        <path id="path14" d="M2594.37,557.552C2496.34,604.685 2433.74,704.251 2433.74,813.02" style="fill:none;fill-rule:nonzero;stroke:black;stroke-width:0.99px;"/>
        <path id="path16" d="M2594.37,557.551C2643.38,533.985 2674.68,484.202 2674.68,429.818" style="fill:none;fill-rule:nonzero;stroke:black;stroke-width:0.99px;"/>
        <path id="path18" d="M2674.68,356.323L2674.68,429.817" style="fill:none;fill-rule:nonzero;stroke:black;stroke-width:0.99px;"/>
        <path id="path20" d="M2178.62,4.621L2243.66,6.24L2308.33,11.576L2371.91,21.451L2440.21,38.967L2497.75,61.678L2543.68,87.73L2586.63,122.405L2618.18,158.985L2643.68,202.454L2660.24,246.566L2669.12,285.789L2672.21,308.424L2674.68,356.323" style="fill:none;fill-rule:nonzero;stroke:black;stroke-width:0.99px;"/>
        <path id="path22" d="M1753.42,4.621L2178.62,4.621" style="fill:none;fill-rule:nonzero;stroke:black;stroke-width:0.99px;"/>
        <path id="path24" d="M1753.42,4.621L1688.38,6.24L1623.71,11.576L1560.13,21.451L1498.98,36.715L1442.62,57.811L1388.36,87.73L1345.4,122.405L1313.86,158.985L1288.36,202.454L1269.64,254.349L1259.83,308.424L1257.36,356.323" style="fill:none;fill-rule:nonzero;stroke:black;stroke-width:0.99px;"/>
        <path id="path26" d="M1257.36,356.323L1257.36,429.817" style="fill:none;fill-rule:nonzero;stroke:black;stroke-width:0.99px;"/>
        <path id="path28" d="M1257.36,429.818C1257.36,484.202 1288.66,533.985 1337.67,557.551" style="fill:none;fill-rule:nonzero;stroke:black;stroke-width:0.99px;"/>
        <path id="path30" d="M1498.3,813.019C1498.3,704.251 1435.7,604.685 1337.67,557.552" style="fill:none;fill-rule:nonzero;stroke:black;stroke-width:0.99px;"/>
        <path id="path32" d="M1498.3,813.019L1498.3,1038.74" style="fill:none;fill-rule:nonzero;stroke:black;stroke-width:0.99px;"/>
        <path id="path34" d="M1337.67,1294.21C1435.7,1247.08 1498.3,1147.51 1498.3,1038.74" style="fill:none;fill-rule:nonzero;stroke:black;stroke-width:0.99px;"/>
        <path id="path36" d="M1337.67,1294.21C1288.66,1317.78 1257.36,1367.56 1257.36,1421.94" style="fill:none;fill-rule:nonzero;stroke:black;stroke-width:0.99px;"/>
        <path id="path38" d="M1257.36,1706.12L1257.36,1421.94" style="fill:none;fill-rule:nonzero;stroke:black;stroke-width:0.99px;"/>
        <path id="path40" d="M1753.42,1988.87L1688.39,1986.85L1605.95,1978.59L1539.38,1966.64L1471.23,1948.06L1412.98,1924.91L1362.85,1896.51L1319.06,1860.18L1289.94,1823.45L1271.98,1787.85L1262.01,1753.74L1257.36,1706.12" style="fill:none;fill-rule:nonzero;stroke:black;stroke-width:0.99px;"/>
    </g>
</svg>
